<svg width="756" height="610" viewBox="0 0 756 610" fill="none" xmlns="http://www.w3.org/2000/svg">
<path d="M421.042 176.356C421.042 182.019 420.949 187.634 420.769 193.202C422.619 231.924 430.906 268.184 445.632 301.98C462.473 339.828 486.132 373.65 516.607 403.445C547.083 433.241 582.772 459.01 623.673 480.753C663.772 501.69 707.881 517.795 756 529.069L707.881 610C654.95 596.31 606.029 576.58 561.118 550.812C515.405 525.043 475.707 494.442 442.023 459.01C416.177 431.85 394.836 401.524 378 368.032C361.164 401.524 339.823 431.85 313.977 459.01C280.293 494.442 240.595 525.043 194.882 550.812C149.971 576.58 101.05 596.31 48.1191 610L0 529.069C48.1189 517.795 92.228 501.69 132.327 480.753C173.228 459.01 208.917 433.241 239.393 403.445C269.868 373.65 293.527 339.828 310.368 301.98C325.094 268.184 333.38 231.924 335.23 193.202C335.05 187.634 334.958 182.019 334.958 176.356V0H421.042V176.356Z" fill="white"/>
</svg>
